<svg version="1.1" id="Layer_1" xmlns="http://www.w3.org/2000/svg" xmlns:xlink="http://www.w3.org/1999/xlink" x="0px" y="0px"
	 width="100%" viewBox="0 0 73 72" enable-background="new 0 0 73 72" xml:space="preserve">
<path fill="#FBFBFB" opacity="1.000000" stroke="none" 
	d="
M50.000072,73.000000 
	C34.333385,73.000000 19.166119,72.932426 4.000649,73.067078 
	C1.497746,73.089302 0.921281,72.501152 0.934196,69.999710 
	C1.047775,48.000301 1.047755,25.999807 0.934217,4.000393 
	C0.921309,1.499214 1.498887,0.921606 4.000279,0.934246 
	C26.333042,1.047097 48.666851,1.047077 70.999611,0.934267 
	C73.500740,0.921633 74.078712,1.498842 74.065804,4.000286 
	C73.952225,25.999701 73.952240,48.000195 74.065781,69.999611 
	C74.078690,72.500786 73.509430,73.142136 70.998047,73.068619 
	C64.170570,72.868774 57.333412,73.000000 50.000072,73.000000 
z"/>
<path fill="#949494" opacity="1.000000" stroke="none" 
	d="
M40.167351,24.806646 
	C40.435242,32.616871 33.018814,40.436462 25.388683,40.909187 
	C23.901075,41.001354 22.401684,40.903297 20.469166,40.839470 
	C19.495090,40.154190 19.223278,39.444504 19.545616,38.252388 
	C20.442869,37.160591 21.402649,36.795280 22.376593,36.836819 
	C30.472538,37.182095 34.442120,32.179569 37.411816,25.227207 
	C38.323723,24.411686 39.066124,24.312468 40.167351,24.806646 
z"/>
<path fill="#343434" opacity="1.000000" stroke="none" 
	d="
M26.602531,59.068130 
	C26.864664,55.832893 26.777100,52.844185 26.889534,49.863022 
	C26.959656,48.003746 26.511961,46.747395 24.121576,46.605370 
	C26.192419,45.367485 28.076990,45.750416 29.997616,45.832142 
	C28.430696,50.872448 29.471024,55.888039 29.137693,60.829262 
	C29.054577,62.061344 29.788084,63.846901 28.104366,64.288315 
	C26.461834,64.718933 26.279388,62.790390 25.394884,61.496460 
	C25.418276,60.436543 25.763592,59.810760 26.602531,59.068130 
z"/>
<path fill="#949494" opacity="1.000000" stroke="none" 
	d="
M18.828339,8.288334 
	C25.539501,5.608322 31.115562,7.093065 35.819420,12.721924 
	C36.138897,13.583290 35.965565,14.020342 35.090149,14.417252 
	C30.243521,12.618526 25.679752,11.100228 20.411015,10.739826 
	C19.343256,10.129906 18.903082,9.490434 18.828339,8.288334 
z"/>
<path fill="#A4A4A4" opacity="1.000000" stroke="none" 
	d="
M18.581078,7.954578 
	C19.199295,8.361102 19.458118,8.820351 19.850855,9.508045 
	C20.469891,12.529096 17.671694,12.104601 16.222887,13.481923 
	C13.147080,15.120267 12.727626,18.707773 9.665854,20.276070 
	C8.847162,20.223047 8.459130,19.974125 8.025411,19.274677 
	C9.349771,13.410852 13.307989,10.258376 18.581078,7.954578 
z"/>
<path fill="#9E9E9E" opacity="1.000000" stroke="none" 
	d="
M34.730484,14.453720 
	C35.127216,13.875825 35.425098,13.681308 35.856033,13.252367 
	C40.076977,15.700832 41.338627,19.541338 40.521919,24.636402 
	C39.915977,25.044931 39.362167,25.028835 38.529381,25.017868 
	C35.819054,22.062939 35.618534,18.310326 34.730484,14.453720 
z"/>
<path fill="#8D8D8D" opacity="1.000000" stroke="none" 
	d="
M7.578155,19.192043 
	C8.245680,19.197386 8.582175,19.456303 9.091772,19.985615 
	C10.716059,24.494923 10.764274,29.199890 13.526236,33.399933 
	C13.467031,34.328053 13.204559,34.758686 12.373995,35.045895 
	C5.921957,31.186514 6.852136,25.234632 7.578155,19.192043 
z"/>
<path fill="#6D6D6D" opacity="1.000000" stroke="none" 
	d="
M57.395779,29.025265 
	C56.065933,28.195410 55.143749,27.385027 54.092888,26.295944 
	C53.896179,25.352602 53.929031,24.696003 54.241482,23.743778 
	C55.490387,21.836586 56.624355,20.240622 57.194092,17.968006 
	C57.597420,17.274069 57.943218,16.987045 58.689110,16.886433 
	C60.874680,19.510729 60.519062,21.875330 58.402256,24.009090 
	C57.400021,25.019356 56.486725,25.896046 58.084915,27.417219 
	C58.457127,28.237265 58.333126,28.695864 57.395779,29.025265 
z"/>
<path fill="#343434" opacity="1.000000" stroke="none" 
	d="
M51.197304,25.528484 
	C49.087051,27.031460 50.400753,28.912502 49.807526,30.711086 
	C49.356945,31.340731 48.960922,31.471228 48.263649,31.221363 
	C47.932049,26.328814 47.844612,21.655806 47.687378,16.526192 
	C48.037579,15.660415 48.540619,15.452647 49.532257,15.557562 
	C51.945980,17.682209 51.116405,20.389687 51.711746,23.173126 
	C51.771046,24.148352 51.673786,24.689301 51.197304,25.528484 
z"/>
<path fill="#3A3A3A" opacity="1.000000" stroke="none" 
	d="
M18.222595,64.210526 
	C15.935794,65.030487 15.662646,63.960945 15.739216,62.157726 
	C15.898335,58.410477 15.815501,54.652950 15.950957,50.445477 
	C16.515350,49.608589 17.026690,49.473019 17.958126,49.800220 
	C18.758057,50.782360 18.811651,51.579727 18.300577,52.765156 
	C18.122963,56.035358 18.155058,58.946838 18.198662,62.291237 
	C18.281475,63.061062 18.352777,63.397972 18.222595,64.210526 
z"/>
<path fill="#717171" opacity="1.000000" stroke="none" 
	d="
M50.624516,16.324657 
	C49.756905,16.069448 49.145916,16.066517 48.076256,16.066586 
	C46.049267,16.044104 45.354832,14.573309 46.827114,14.454110 
	C50.824791,14.130450 55.281258,12.538007 58.867996,16.650654 
	C58.694744,17.272747 58.370922,17.555086 57.901299,18.129025 
	C55.389652,18.083456 53.146622,17.288342 50.624516,16.324657 
z"/>
<path fill="#9F9F9F" opacity="1.000000" stroke="none" 
	d="
M12.124952,35.316147 
	C12.310378,34.907146 12.575307,34.717503 12.889540,34.220322 
	C13.694688,33.579041 14.369392,33.796097 15.365468,34.210999 
	C17.200182,35.426495 19.326651,35.581856 20.136755,37.786667 
	C19.993553,38.778381 20.000490,39.448299 20.019018,40.452091 
	C16.798428,40.032806 14.263819,38.230858 12.124952,35.316147 
z"/>
<path fill="#717171" opacity="1.000000" stroke="none" 
	d="
M18.420162,52.993740 
	C18.061956,52.369568 18.033045,51.615253 18.088020,50.486641 
	C18.190252,49.611675 18.375750,49.179272 19.066406,48.754295 
	C21.454834,50.268238 22.047686,52.785095 23.546041,55.092216 
	C23.547705,55.762901 23.451727,56.107574 22.840633,56.602844 
	C20.959827,55.616486 20.884382,53.293365 18.420162,52.993740 
z"/>
<path fill="#515151" opacity="1.000000" stroke="none" 
	d="
M56.532692,45.887135 
	C57.881302,45.971046 58.837048,45.868500 59.744232,46.033298 
	C61.767372,46.400822 61.047226,48.089466 60.798534,49.105343 
	C60.469593,50.449017 59.234707,50.107132 58.614891,49.303825 
	C57.663876,48.071281 55.489353,48.173157 55.325520,46.183197 
	C55.319645,46.111809 55.524502,46.000481 55.648109,45.946873 
	C55.795078,45.883133 55.960415,45.861736 56.532692,45.887135 
z"/>
<path fill="#7E7E7E" opacity="1.000000" stroke="none" 
	d="
M46.456245,52.259521 
	C46.427681,48.685844 48.649956,47.056164 52.102787,46.348747 
	C50.906719,48.070267 49.710648,49.791790 48.291908,51.762428 
	C47.698544,52.354614 47.261551,52.504829 46.456245,52.259521 
z"/>
<path fill="#515151" opacity="1.000000" stroke="none" 
	d="
M46.023952,52.464916 
	C46.579582,52.039803 47.004944,52.022766 47.749775,52.008644 
	C48.218964,54.556732 48.368683,57.101913 48.582363,60.057091 
	C48.545113,60.683689 48.443901,60.900288 47.996185,61.209282 
	C45.269096,58.866131 45.608589,55.863895 46.023952,52.464916 
z"/>
<path fill="#767676" opacity="1.000000" stroke="none" 
	d="
M57.103264,29.321901 
	C57.296162,28.745630 57.604206,28.485470 58.043900,27.947138 
	C60.117973,28.919428 60.364594,31.529377 63.013382,32.747433 
	C58.822189,34.591263 58.563793,31.242607 57.103264,29.321901 
z"/>
<path fill="#767676" opacity="1.000000" stroke="none" 
	d="
M59.187004,63.463051 
	C56.550083,65.773819 54.095974,65.132538 51.077782,64.191299 
	C53.410290,61.861656 56.291920,63.999851 58.468414,61.958656 
	C59.257248,62.103630 59.453453,62.565094 59.187004,63.463051 
z"/>
<path fill="#515151" opacity="1.000000" stroke="none" 
	d="
M59.337769,63.718925 
	C58.963520,63.337681 58.957169,62.880222 58.883144,62.084679 
	C58.787045,60.497219 58.758621,59.247845 58.717110,57.623032 
	C59.129475,56.703598 59.683487,56.484283 60.765114,56.849785 
	C60.337727,59.211624 62.201817,61.913929 59.337769,63.718925 
z"/>
<path fill="#282828" opacity="1.000000" stroke="none" 
	d="
M19.289200,48.357231 
	C19.179401,49.047295 18.931488,49.391781 18.427742,49.924305 
	C17.704952,50.073410 17.237997,50.034473 16.420418,49.993423 
	C16.066214,48.506008 15.294662,47.343456 14.375943,46.236588 
	C16.702969,45.079742 18.150784,45.968220 19.289200,48.357231 
z"/>
<path fill="#717171" opacity="1.000000" stroke="none" 
	d="
M26.569717,58.755516 
	C26.983345,59.675018 26.674997,60.343819 25.616333,61.004585 
	C23.707876,60.329723 23.365452,58.660755 22.461811,57.018044 
	C22.535713,56.522373 22.745911,56.291309 23.299896,55.739235 
	C24.519699,56.509689 25.395716,57.601154 26.569717,58.755516 
z"/>
<path fill="#282828" opacity="1.000000" stroke="none" 
	d="
M47.791340,31.302425 
	C48.389889,31.015539 48.760292,31.029257 49.408524,31.032766 
	C50.601357,31.531092 51.516365,32.039623 53.652699,33.226933 
	C50.640663,33.226933 48.682686,33.676640 47.082333,33.112259 
	C45.114689,32.418350 47.052204,32.036076 47.791340,31.302425 
z"/>
<path fill="#6F6F6F" opacity="1.000000" stroke="none" 
	d="
M51.311943,25.867748 
	C50.891464,25.515619 50.850018,25.183836 50.854523,24.605288 
	C51.712177,22.998768 52.930477,23.038225 54.615776,23.680229 
	C54.817032,24.539642 54.641571,25.107168 54.215157,25.845972 
	C53.206467,25.974197 52.448719,25.931147 51.311943,25.867748 
z"/>
<path fill="#141414" opacity="1.000000" stroke="none" 
	d="
M61.458954,56.868774 
	C60.616409,57.124771 60.068600,57.139496 59.112408,57.200905 
	C57.312870,57.093777 55.921715,56.939957 54.530560,56.786137 
	C57.004227,55.931274 59.419399,55.064968 61.458954,56.868774 
z"/>
<path fill="#717171" opacity="1.000000" stroke="none" 
	d="
M18.310368,64.807030 
	C18.045227,64.358452 18.069344,64.030739 18.151815,63.213589 
	C19.082115,62.985901 20.492989,62.623150 20.666218,63.732235 
	C20.897474,65.212830 19.493759,64.844185 18.310368,64.807030 
z"/>
<path fill="#7E7E7E" opacity="1.000000" stroke="none" 
	d="
M49.202141,61.822083 
	C49.591038,61.953373 49.693954,61.699284 49.828354,61.726219 
	C50.069553,62.042053 50.176357,62.330952 50.130569,63.055939 
	C49.403614,63.200405 48.829247,62.908783 48.149960,62.298706 
	C48.301105,61.883766 48.557171,61.787277 49.202141,61.822083 
z"/>
<path fill="#7E7E7E" opacity="1.000000" stroke="none" 
	d="
M53.527390,45.553082 
	C53.485863,45.557739 53.568916,45.548424 53.527390,45.553082 
z"/>
<path fill="#515151" opacity="1.000000" stroke="none" 
	d="
M49.553894,61.643887 
	C49.333225,61.949474 49.075413,61.945576 48.431320,61.960968 
	C48.045040,61.980251 47.754688,61.694920 47.702179,61.498299 
	C47.812862,61.159813 47.976055,61.017944 48.392784,60.671581 
	C48.936462,60.756191 49.226604,61.045296 49.553894,61.643887 
z"/>
<path fill="#767676" opacity="1.000000" stroke="none" 
	d="
M50.377888,63.485664 
	C49.972485,63.202557 49.966991,62.913082 49.962124,62.188385 
	C50.710808,62.103607 51.375988,62.493183 50.377888,63.485664 
z"/>
<path fill="#FAFAFA" opacity="1.000000" stroke="none" 
	d="
M20.430702,38.115387 
	C18.461351,37.260929 16.936089,36.413395 15.170294,35.334881 
	C14.621464,34.608059 14.484216,34.069073 14.723921,33.117641 
	C18.894533,31.751722 22.935823,33.066677 27.221451,32.180729 
	C27.842010,31.617300 28.111177,31.216705 28.305229,30.768398 
	C27.535282,30.703508 27.816496,31.520472 27.435593,31.811670 
	C27.045525,32.109875 26.663313,32.375309 25.789749,32.485779 
	C16.573689,32.466431 16.545813,32.466244 16.605225,23.587595 
	C16.621517,21.152634 16.209246,18.639772 17.772873,16.015862 
	C19.901604,14.621540 21.912374,15.143455 24.209085,15.035109 
	C24.990713,15.083255 25.406757,15.147728 26.012768,15.353725 
	C22.654306,14.127934 18.852938,15.891814 15.016901,14.346670 
	C14.671146,13.897114 14.601702,13.670813 14.689790,13.126297 
	C16.433401,11.973839 18.019480,11.139594 19.795162,10.020921 
	C25.203997,9.383317 30.127371,10.090196 34.532974,13.892227 
	C36.316139,17.321350 38.467350,20.358147 38.174038,24.615345 
	C36.201382,33.774998 30.160736,39.393188 20.430702,38.115387 
z"/>
<path fill="#E4E4E4" opacity="1.000000" stroke="none" 
	d="
M15.259138,32.885437 
	C14.967397,33.617287 14.977440,34.041550 14.958622,34.784855 
	C14.455928,34.813202 13.982094,34.522507 13.254391,34.115376 
	C9.777427,30.268818 8.622663,25.935778 9.250806,20.671566 
	C11.569566,18.343172 11.659163,14.864314 14.560656,12.989408 
	C14.883209,13.031770 14.919096,13.255458 14.996776,13.816387 
	C15.666911,14.702482 16.443266,15.063098 17.195381,16.077131 
	C17.609798,20.555655 17.463638,24.658886 17.466669,28.760241 
	C17.467804,30.297194 18.033195,32.228340 15.259138,32.885437 
z"/>
<path fill="#F2F2F2" opacity="1.000000" stroke="none" 
	d="
M55.243736,23.752329 
	C53.896919,24.043303 52.801346,24.114489 51.303123,24.272100 
	C49.089317,22.042654 50.237434,19.378052 50.193214,16.473461 
	C52.707424,16.481054 55.558117,14.958814 57.492828,18.154800 
	C58.012466,20.571436 57.545399,22.402075 55.243736,23.752329 
z"/>
<path fill="#141414" opacity="1.000000" stroke="none" 
	d="
M15.425245,33.216602 
	C17.451454,30.814823 16.737099,27.731802 16.759361,24.828869 
	C16.780577,22.062565 16.700535,19.295485 16.334925,16.262121 
	C16.448370,13.431580 17.852919,14.598044 19.088938,15.634487 
	C17.433748,20.615732 19.985323,25.284451 18.603525,29.889086 
	C18.085972,31.613762 19.612431,32.029083 21.100666,32.004631 
	C22.757910,31.977406 24.415882,31.994410 26.518818,31.982403 
	C27.464603,31.598944 28.023310,31.461084 29.024738,31.786335 
	C25.107889,34.670483 20.375322,32.575756 15.425245,33.216602 
z"/>
<path fill="#6D6D6D" opacity="1.000000" stroke="none" 
	d="
M19.496271,16.108240 
	C18.385963,14.794666 17.352268,14.947807 16.127354,15.687744 
	C15.283513,15.923907 14.754882,15.675840 14.974669,14.477249 
	C18.844503,14.144689 22.651197,14.085065 26.456146,14.142104 
	C29.776400,14.191878 29.855717,16.371140 28.796753,18.548567 
	C28.174648,19.827728 27.228138,19.082407 26.830746,17.483099 
	C26.685324,16.867846 26.591848,16.679537 26.223995,16.335789 
	C23.941580,16.167847 21.933540,16.155342 19.496271,16.108240 
z"/>
<path fill="#888888" opacity="1.000000" stroke="none" 
	d="
M21.814102,23.282501 
	C22.103573,21.567669 22.739012,20.096743 24.005707,21.207518 
	C25.599957,22.605524 25.405062,25.045017 24.191759,26.570591 
	C23.191217,27.828650 22.201229,26.671238 21.927330,24.958250 
	C21.845610,24.303188 21.751013,24.010017 21.814102,23.282501 
z"/>
<path fill="#626262" opacity="1.000000" stroke="none" 
	d="
M29.587776,31.707144 
	C28.866903,32.027641 28.324535,32.041637 27.373133,32.014137 
	C28.162563,30.576317 26.936493,28.368729 28.467634,26.983500 
	C30.638483,28.091776 29.597214,29.913118 29.587776,31.707144 
z"/>
<path fill="#626262" opacity="1.000000" stroke="none" 
	d="
M21.553591,22.970181 
	C21.975393,23.139347 21.978998,23.430534 21.961405,24.159040 
	C20.688799,24.621010 20.282076,24.193707 21.553591,22.970181 
z"/>
<path fill="#CFCFCF" opacity="1.000000" stroke="none" 
	d="
M26.076054,16.337652 
	C26.242659,16.301035 26.535700,16.421719 26.803770,16.799278 
	C26.557901,16.898659 26.365797,16.711592 26.076054,16.337652 
z"/>
</svg>